<svg width="154" height="164" viewBox="0 0 154 164" fill="none" xmlns="http://www.w3.org/2000/svg">
<path d="M105.5 53.9998L111 73.4998M111 73.4998L105.5 70.9998M111 73.4998L113 67.4998M105 45.9998C108.167 40.1664 115.6 31.1998 120 41.9998C124.4 52.7998 114.833 52.1665 109.5 50.4998M47.3333 90.8903V81.5233M47.3333 90.8903L49.3478 89.8794C49.7542 89.6755 50.2361 89.6933 50.6265 89.9267L81.3333 108.286M47.3333 90.8903L34 98.9191M47.3333 81.5233L90 106.279M47.3333 81.5233L51.3679 79.2963M90 106.279L116 90.8903M90 106.279V136.387M116 90.8903V120.234C116 120.708 115.751 121.146 115.344 121.387L94.6667 133.625M116 90.8903L104.5 84.2952M90 136.387L81.3333 132.372M90 136.387L94.6667 133.625M81.3333 132.372V108.286M81.3333 132.372V146.423M81.3333 108.286L76 111.185M34 98.9191L65.3333 116.984M34 98.9191L28 115.646M65.3333 116.984L59.3333 133.711M65.3333 116.984L76 111.185M59.3333 133.711L75.3181 124.727C75.7392 124.49 76 124.044 76 123.559V111.185M59.3333 133.711L28 115.646M59.3333 133.711V142.408M28 115.646V124.344M28 136.387L58 154.452M28 136.387L26.9117 136.751C26.3672 136.933 26 137.444 26 138.02V141.64C26 142.116 26.2519 142.556 26.6615 142.796L58 161.142M28 136.387V131.034M58 154.452L59.3333 153.113M58 154.452V161.142M59.3333 153.113L61.3333 154.452M59.3333 153.113V149.099M61.3333 154.452V158.377C61.3333 158.847 61.0876 159.283 60.686 159.525L58 161.142M61.3333 154.452L64.2373 156.459M81.3333 146.423L94.0193 138.784C94.4209 138.542 94.6667 138.106 94.6667 137.636V133.625M81.3333 146.423C71.3333 138.394 64.6667 159.135 71.3333 162.48M81.3333 146.423C85.642 149.882 78.5136 166.083 71.3333 162.48M81.3333 146.423L73.7142 141.962C73.4669 141.817 73.1805 141.753 72.8981 141.8C69.1364 142.434 63.0983 146.118 64.2373 156.459M28 131.034L32.6473 133.833C33.536 134.368 34.6667 133.725 34.6667 132.685V129.116C34.6667 128.646 34.4209 128.21 34.0193 127.968L28 124.344M28 131.034V124.344M59.3333 142.408L52.6321 138.787C51.7438 138.307 50.6667 138.953 50.6667 139.965V143.616C50.6667 144.109 50.936 144.561 51.3679 144.795L59.3333 149.099M59.3333 142.408V149.099M48 142.408L38 136.387M47.3333 136.387L38 131.034M71.3333 162.48L65.244 159.425C64.8794 159.242 64.6164 158.902 64.5415 158.499C64.4099 157.792 64.3092 157.112 64.2373 156.459M94.6667 138.394L103.333 143.077M103.333 143.077C106 145.085 118 135.718 111.333 124.344M103.333 143.077C98 137.725 100.667 131.48 102.667 129.027M51.3679 79.2963L73.345 67.1654C73.7519 66.9408 74.2459 66.9449 74.6491 67.1761L104.5 84.2952M51.3679 79.2963L42.2562 78.6579C40.9206 78.5643 39.6846 79.367 39.2271 80.6253L38.8176 81.7514C38.3393 83.0668 37.0149 83.8766 35.6261 83.703L30.5849 83.0729C30.1987 83.0246 29.8255 82.9016 29.4862 82.7108L24.8733 80.116C23.3321 79.2491 21.3793 79.8964 20.6611 81.5123L20.2262 82.4907C20.0767 82.8272 19.8665 83.1333 19.6061 83.3936L16.58 86.4197C16.2003 86.7995 15.9295 87.2741 15.7958 87.7942L15.3643 89.4731C15.1377 90.3547 14.4729 91.0573 13.6052 91.3324V91.3324C12.3868 91.7186 11.0667 91.1765 10.4714 90.0455L2.0475 74.04C1.69774 73.3755 1.63426 72.597 1.87174 71.8845L1.88684 71.8392C2.25301 70.7407 3.28104 69.9998 4.43897 69.9998V69.9998C4.80901 69.9998 5.17507 69.9234 5.51426 69.7755L8.70259 68.3852C10.2398 67.7149 10.929 65.9147 10.2325 64.3893L8.451 60.4875C8.15958 59.8493 8.1011 59.1291 8.28571 58.4522L9.39429 54.3874C9.46445 54.1301 9.5 53.8647 9.5 53.598V46.4315C9.5 45.2551 10.1876 44.1872 11.2586 43.7004L14.4084 42.2687C14.7983 42.0915 15.2216 41.9998 15.6498 41.9998H16.7574C17.553 41.9998 18.3161 41.6837 18.8787 41.1211L19.8492 40.1505C19.9496 40.0501 20.057 39.957 20.1706 39.8718L24.1999 36.8499C25.2666 36.0498 26.7334 36.0499 27.8 36.85L28 37M28 37L37 54.9998M28 37C28 32.5 29.5 27.9998 31 26.9998M37 54.9998C41 50.9998 48 40.9998 44 32.9998C39 22.9998 32.5 25.9998 31 26.9998M37 54.9998C45.4442 50.9887 48.9862 45.9082 49.7334 41M31 26.9998C32.5 24.6665 36.9 21 42.5 25C46.5445 27.889 50.756 34.2831 49.7334 41M49.7334 41L50.8498 41.807C51.846 42.5272 53.1808 42.5667 54.218 41.9068L56.567 40.4119C57.456 39.8462 58.5767 39.7884 59.5192 40.2596L61.1056 41.0528C61.6862 41.3431 62.3452 41.4372 62.9839 41.3211L66.3723 40.705C67.0985 40.573 67.7505 40.1779 68.2037 39.5952L70.8142 36.2389C70.9377 36.0801 71.077 35.934 71.2298 35.803L80.1411 28.1647C80.9782 27.4472 82.1414 27.2467 83.1704 27.6425L86.8016 29.0391C87.5669 29.3334 88.1785 29.9283 88.4939 30.6853L89.6776 33.5263C90.1698 34.7075 91.3569 35.4464 92.634 35.3666L97.3124 35.0742C98.0752 35.0265 98.7911 34.6895 99.3139 34.1319L105.291 27.7558C105.751 27.2661 106.361 26.9445 107.024 26.8425L111.664 26.1286C112.211 26.0445 112.723 25.8109 113.146 25.4537L118.047 21.3064C118.657 20.7903 119.036 20.0521 119.1 19.2555L119.886 9.43083C119.958 8.52606 120.436 7.7027 121.186 7.19138L129.696 1.38897C130.511 0.833287 131.549 0.719726 132.465 1.08607V1.08607C134.258 1.80333 134.897 4.01705 133.761 5.57895L133.409 6.06272C132.585 7.19579 132.655 8.74836 133.577 9.80275L134.732 11.1226C135.226 11.687 135.913 12.0459 136.659 12.1287L137.787 12.2541C139.101 12.4001 140.165 13.3893 140.405 14.6895L142.326 25.0603C142.435 25.6485 142.247 26.2527 141.824 26.6758V26.6758C141.099 27.4006 141.117 28.581 141.864 29.2835L148.449 35.4816C148.811 35.8219 149.082 36.2465 149.239 36.7175L151.5 43.5L152.132 45.6063C152.586 47.12 151.57 48.6787 150.002 48.8747V48.8747C149.358 48.9552 148.708 48.7876 148.183 48.4059L143.5 45L141.793 43.9757C141.276 43.6658 140.865 43.2074 140.613 42.6604L135.634 31.8733C135.269 31.083 134.383 30.6764 133.546 30.9155V30.9155C132.483 31.2193 131.957 32.4141 132.451 33.4029L133.504 35.5074C133.824 36.1479 133.905 36.8819 133.731 37.5766L132.202 43.6939C132.07 44.2214 131.797 44.7031 131.412 45.0876L128.528 47.972C127.879 48.6212 127.563 49.532 127.67 50.4438L128.188 54.8505C128.366 56.3614 129.646 57.5 131.168 57.5H137.146C138.282 57.5 139.321 58.142 139.829 59.1584L143.651 66.8019C143.88 67.2597 143.988 67.7684 143.965 68.2797L143.548 77.4378C143.517 78.125 143.251 78.7806 142.794 79.2947L140.353 82.0405C139.822 82.6377 139.022 82.9203 138.234 82.789V82.789C137.208 82.618 136.421 81.7866 136.306 80.7531L135.895 77.0565C135.689 75.2016 133.857 73.9831 132.067 74.5097L128.443 75.5756C127.535 75.8427 126.554 75.6655 125.797 75.0975L121.8 72.1C121.281 71.7105 120.649 71.5 120 71.5H119.579C118.328 71.5 117.209 72.2757 116.77 73.4466L114.942 78.3226C114.659 79.0758 114.086 79.684 113.351 80.0107L110 81.5L104.5 84.2952M36 67.5L52 62.5M68.5 61.9997C67.1666 64.4997 63.523 68.9765 62 70.4997C61.5001 70.9997 50.5002 54.9998 57.5 50.4997C63.9061 46.3813 70.5001 48.9997 70.0001 55.4997M70.0001 58.4998L99.5002 51.9998M99.5002 51.9998L94.5002 48.4998M99.5002 51.9998L97.0002 56.4998M36.5 32.9998C39.2033 32.7252 43.0624 33.5315 41.5 39C39.5262 45.9083 29 37 34.8299 33.602C34.9372 33.5323 36.3727 33.0127 36.5 32.9998ZM73.3333 156.459C75.3333 159.135 79.7299 150.972 76 150.437C74.6667 150.246 71.3333 153.113 73.3333 156.459ZM108.775 131.227C109.532 132.748 109.219 136.185 106.667 137.056C102.74 138.396 105.238 128.724 108.484 130.9C108.606 130.981 108.709 131.095 108.775 131.227ZM20.5 66.5C21.5 61.5 30.2075 58.6957 32.5 65C36.5 76 20 75.0002 20.5 66.5Z" stroke="white" stroke-width="1.7" stroke-linecap="round"/>
</svg>
