<svg width="107" height="127" viewBox="0 0 107 127" fill="none" xmlns="http://www.w3.org/2000/svg">
<path d="M1.5 32.0002V91.8826C1.5 92.5772 1.86031 93.222 2.45181 93.586L38.5 115.769M1.5 32.0002L52.4772 1.60998C53.1074 1.23427 53.8928 1.23381 54.5235 1.60881L90.5 23.0002M1.5 32.0002L38.5 53.3464M53.5 125L104.548 93.586C105.14 93.222 105.5 92.5772 105.5 91.8826V32.0002M53.5 125V62.0002M53.5 125L38.5 115.769M105.5 32.0002L53.5 62.0002M105.5 32.0002L90.5 23.0002M53.5 62.0002L38.5 53.3464M90.5 23.0002L38.5 53.3464M38.5 53.3464V115.769M80.7307 95.4235L95.8165 57.7089C96.2028 56.7431 95.7844 55.6424 94.854 55.1772L90.3609 52.9307C89.3452 52.4229 88.111 52.8615 87.6437 53.8964L75.5983 80.5683C75.0493 81.7839 73.4867 82.1317 72.474 81.2636L68.8151 78.1275C68.0602 77.4804 66.9447 77.4861 66.1965 78.1408L61.0577 82.6372C60.2062 83.3823 60.1418 84.6848 60.9157 85.5103L73.3412 98.7642C74.0099 99.4775 75.0962 99.6028 75.9097 99.0604L79.9831 96.3448C80.3198 96.1204 80.5804 95.7991 80.7307 95.4235Z" stroke="white" stroke-width="2"/>
</svg>
