<svg width="134" height="146" viewBox="0 0 134 146" fill="none" xmlns="http://www.w3.org/2000/svg">
<path d="M44.7109 18.9749C50.115 21.3846 61.4312 26.0086 63.4626 25.2271C66.0019 24.2502 69.5179 19.7564 72.4478 19.7564C74.6638 19.7564 77.9971 19.3093 79.6591 17.739M44.7109 18.9749C41.7809 14.4811 46.2735 12.918 51.3521 11.1596C56.4307 9.40115 57.6027 7.44731 63.4626 6.66578C69.3225 5.88425 68.9319 9.40113 75.1824 10.1827C81.433 10.9642 81.0424 12.7226 80.6517 15.8488M44.7109 18.9749L53.3052 35.1916M79.6591 17.739C80.1945 17.2331 80.5565 16.6105 80.6517 15.8488M79.6591 17.739L70.4943 35.1916M79.6591 17.739L80.6517 15.8488M53.3052 35.1916C56.4956 37.8619 64.4 41.6002 70.4943 35.1916M53.3052 35.1916C51.8139 35.0673 49.3975 35.5007 51.0822 38.1224M70.4943 35.1916C71.4001 34.7386 73.5365 35.0734 72.1528 38.1224M55.6492 41.3223C53.686 40.5411 52.1102 39.5424 51.3521 38.5131C51.2524 38.3778 51.1626 38.2476 51.0822 38.1224M55.6492 41.3223C52.6541 43.512 46.117 49.2201 43.9293 54.5345M55.6492 41.3223C57.3414 41.9957 59.3215 42.5075 61.3137 42.7379M61.3137 42.7379C59.7511 45.8885 56.704 52.776 57.0165 55.1206M61.3137 42.7379C64.6358 43.1221 67.9917 42.7239 70.1036 40.9882M70.1036 40.9882C70.5554 40.617 70.9502 40.1845 71.2756 39.6854C71.658 39.0989 71.9451 38.58 72.1528 38.1224M70.1036 40.9882C73.6196 43.6801 80.6515 49.8844 80.6515 53.1668M72.1528 38.1224C72.4476 38.5131 93.348 51.4084 96.278 62.9359C99.2079 74.4635 102.138 97.1278 102.529 98.3001C102.919 99.4724 109.951 105.529 106.826 109.632C104.326 112.915 87.6834 117.643 79.6748 119.597M79.6748 119.597C75.9635 113.214 67.7206 100.019 64.439 98.3001C60.3371 96.1509 54.8678 85.991 49.3986 85.7956C43.9293 85.6003 45.6873 81.4972 36.1161 89.8987C29.6448 95.579 23.8879 101.795 20.2942 106.373M79.6748 119.597C90.2228 129.561 88.074 126.435 84.558 131.906C81.0421 137.376 40.6086 145.192 36.1161 144.996C31.6236 144.801 24.5915 141.675 20.2942 138.744C15.997 135.813 7.59783 136.79 3.10523 133.273C-1.38737 129.757 2.12858 126.24 6.03519 123.504C9.9418 120.769 15.0204 115.298 16.7784 111.586C17.3477 110.384 18.5728 108.567 20.2942 106.373M51.0822 38.1224C45.833 41.0531 34.2799 48.4385 30.0608 54.5345C24.7868 62.1544 19.9036 80.9111 20.2942 85.7956M20.2942 85.7956C20.6068 89.7033 21.336 97.7139 21.6616 101.231M20.2942 85.7956C20.2291 88.5961 19.2004 95.0176 15.6063 98.3001C11.1137 102.403 12.8717 105.655 20.2942 106.373M99.0125 102.598C94.2594 105.855 83.5423 112.68 78.6981 113.931M30.0608 60.3959C35.1393 65.8666 48.7343 77.2379 62.4856 78.9573M65.8063 78.9573C71.2104 77.785 83.8939 73.5647 91.3946 66.062M35.1394 105.725C35.2696 105.204 35.8816 104.24 37.288 104.552M48.8125 98.3001C49.7241 98.8862 51.2737 100.176 50.1798 100.645M58.1884 108.851C58.9046 109.176 60.0636 110.062 58.9697 111M50.1798 120.574C48.6172 121.511 47.5754 121.485 47.2499 121.355M28.8888 118.034V119.597M19.1223 126.826H17.5596M37.288 131.906L38.2647 130.147M69.5176 124.286L68.9316 122.918M104.947 19.9545L102.358 22.3269C102.193 22.4781 102.189 22.7368 102.348 22.8937L109.832 30.2493C109.983 30.398 110.226 30.3988 110.378 30.2511L123.679 17.3439C123.844 17.1838 123.836 16.9164 123.661 16.7668L120.642 14.178C120.488 14.0462 120.259 14.0538 120.114 14.1955L110.362 23.7424C110.216 23.885 109.986 23.8916 109.832 23.7575L105.468 19.9482C105.318 19.8173 105.093 19.8201 104.947 19.9545ZM113.837 5.39197C108.237 5.28506 97.0149 8.30003 96.9215 21.2152C96.8049 37.3592 110.453 37.3592 113.837 37.3592C117.221 37.3592 127.952 34.4726 128.535 21.2152C129.119 7.9579 119.203 5.39197 113.837 5.39197ZM113.837 1.0085C106.682 0.794671 92.3712 4.53666 92.3712 21.2152C92.3712 37.8938 106.682 41.7783 113.837 41.6358C120.992 41.4932 133.715 34.8147 132.969 21.2152C132.035 4.21592 119.437 1.0085 113.837 1.0085Z" stroke="white" stroke-width="1.7"/>
</svg>
