<svg width="116" height="157" viewBox="0 0 116 157" fill="none" xmlns="http://www.w3.org/2000/svg">
<path d="M67.6665 28.9999L45.9946 37.3731C45.7823 37.4552 45.6042 37.6072 45.49 37.8042L2.25792 112.342C2.19747 112.446 2.15636 112.561 2.13655 112.68L1.21996 118.179C1.18522 118.388 1.21742 118.602 1.31193 118.791L4.1665 124.5M4.1665 124.5L49.9554 147.394C50.0942 147.464 50.2473 147.5 50.4026 147.5H57.3234C57.5458 147.5 57.7618 147.426 57.9373 147.289L61.9962 144.132C62.1084 144.045 62.2008 143.935 62.267 143.809L101.61 69.1065C101.648 69.0357 101.676 68.9607 101.696 68.883L103.098 63.2753C103.143 63.0953 103.137 62.9064 103.08 62.7296L92.7178 30.1612C92.6839 30.0544 92.6322 29.9541 92.5649 29.8644L89.6665 25.9999M4.1665 124.5C5.3409 126.849 9.16515 131.624 11.0463 133.858C11.1265 133.953 11.2182 134.028 11.3277 134.087C21.5612 139.622 43.0959 151.113 48.6665 153.5C55.6665 156.5 57.6665 156 62.1665 155.5C65.7665 155.1 68.3332 152 69.1665 150.5C80.9998 128.167 105.267 82.4 107.667 78C110.036 73.6561 110.001 68.305 109.679 66.0844C109.671 66.0268 109.658 65.9747 109.639 65.9195C106.628 57.0532 100.262 38.3867 98.6665 34C97.0665 29.6 91.9998 26.8333 89.6665 25.9999M89.6665 25.9999L85.2737 25.0237C85.2024 25.0079 85.1297 24.9999 85.0567 24.9999H77.1665M77.1665 24.9999C75.8332 27.3332 73.3665 33.7999 74.1665 38.9999C74.3288 40.0547 74.5437 41.0569 74.8071 42M77.1665 24.9999C79.1665 21.4999 91.3584 3.45121 102.167 10.5C113.667 18 105.669 34.8315 101.002 40.6648M82.1665 51C81.7665 54.2 79.6665 56 76.1665 57M82.1665 51C82.4998 48.8333 83.5509 45.1633 80.6665 43C78.6665 41.5 78.4477 41.5 74.8071 42M82.1665 51C78.8156 50.1623 76.1665 46.8683 74.8071 42M76.1665 57L70.6665 49.4999C70.0982 48.6475 69.425 47.3672 68.8166 45.76M76.1665 57C71.1665 57.5 69.6665 57.5 67.1665 53C65.1665 49.4 67.4332 46.6733 68.8166 45.76M103.444 47.7612C105.277 46.0946 109.767 41.4 112.167 37C115.167 31.5 118.167 9.49989 102.167 2.99989C86.1665 -3.50011 71.6665 17.4999 68.1665 28.9999C66.1621 35.5859 67.2837 41.7106 68.8166 45.76M72.6665 93C68.6982 101.334 59.4805 101.17 55.2664 100.028C55.1983 100.009 55.135 99.9834 55.0726 99.9506L46.5316 95.4553C46.0507 95.2022 45.4557 95.3795 45.1917 95.8546L43.6912 98.5555C43.4082 99.0649 43.619 99.7074 44.1487 99.9502L54.1919 104.553C54.7188 104.795 54.9307 105.432 54.6531 105.941L52.6286 109.653C52.3707 110.126 51.785 110.309 51.3035 110.068L42.0078 105.421C41.5351 105.184 40.96 105.357 40.6952 105.814L36.1523 113.661C35.8816 114.128 35.2885 114.296 34.8128 114.04L30.0746 111.489C29.5777 111.221 29.4005 110.596 29.6832 110.107L34.1339 102.42C34.4226 101.921 34.2311 101.282 33.7156 101.025L29.6797 99.0066C29.1417 98.7376 28.9612 98.0579 29.2949 97.5575L31.1948 94.7076C31.4668 94.2996 31.9943 94.149 32.4407 94.3519L36.3266 96.1182C36.801 96.3339 37.3615 96.149 37.6146 95.6935L39.1771 92.881C39.4468 92.3955 39.2693 91.7833 38.7818 91.5174L35.0812 89.4989C34.5822 89.2268 34.4101 88.5939 34.7026 88.1065L36.6901 84.7941C36.9589 84.346 37.5274 84.1804 37.9948 84.4141L42.3292 86.5813C42.8003 86.8169 43.3733 86.6467 43.6394 86.1921L54.7036 67.2908C54.9655 66.8434 55.5235 66.669 55.9918 66.8915C59.4717 68.544 65.9827 71.6581 69.6665 73.5C74.6665 76 77.6665 82.5 72.6665 93ZM56.1665 93.5L50.0408 89.9996C49.5589 89.7242 49.3934 89.1092 49.6721 88.6292L57.7326 74.7473C57.9818 74.3181 58.5081 74.134 58.9663 74.3245C60.2685 74.8656 62.6451 75.9241 65.1665 77.5C69.1665 80 71.1665 83.5 67.1665 90C63.9665 95.2 58.4998 94.5 56.1665 93.5Z" stroke="white" stroke-width="1.7"/>
</svg>
