<svg width="12" height="14" viewBox="0 0 12 14" fill="none" xmlns="http://www.w3.org/2000/svg">
<path fill-rule="evenodd" clip-rule="evenodd" d="M8.4375 8.01514L8.4375 1C8.4375 0.68934 8.68934 0.4375 9 0.4375C9.31066 0.4375 9.5625 0.68934 9.5625 1L9.5625 8.01514C10.4282 8.25999 11.0625 9.05592 11.0625 10C11.0625 10.9441 10.4282 11.74 9.5625 11.9849L9.5625 13C9.5625 13.3107 9.31066 13.5625 9 13.5625C8.68934 13.5625 8.4375 13.3107 8.4375 13L8.4375 11.9849C7.57181 11.74 6.9375 10.9441 6.9375 10C6.9375 9.05592 7.57181 8.25999 8.4375 8.01514ZM9 9.0625C9.51777 9.0625 9.9375 9.48223 9.9375 10C9.9375 10.5178 9.51777 10.9375 9 10.9375C8.48223 10.9375 8.0625 10.5178 8.0625 10C8.0625 9.48223 8.48223 9.0625 9 9.0625Z" fill="#121317"/>
<path fill-rule="evenodd" clip-rule="evenodd" d="M2.4375 5.98486L2.4375 13C2.4375 13.3107 2.68934 13.5625 3 13.5625C3.31066 13.5625 3.5625 13.3107 3.5625 13L3.5625 5.98486C4.42819 5.74001 5.0625 4.94408 5.0625 4C5.0625 3.05592 4.42819 2.25999 3.5625 2.01514L3.5625 1C3.5625 0.68934 3.31066 0.4375 3 0.4375C2.68934 0.4375 2.4375 0.68934 2.4375 1L2.4375 2.01514C1.57181 2.25998 0.9375 3.05592 0.9375 4C0.9375 4.94408 1.57181 5.74001 2.4375 5.98486ZM3 3.0625C3.51777 3.0625 3.9375 3.48223 3.9375 4C3.9375 4.51777 3.51777 4.9375 3 4.9375C2.48223 4.9375 2.0625 4.51777 2.0625 4C2.0625 3.48223 2.48223 3.0625 3 3.0625Z" fill="#121317"/>
</svg>
