<svg width="117" height="23" viewBox="0 0 117 23" fill="none" xmlns="http://www.w3.org/2000/svg">
<path d="M8.38141 23L16.5029 13.839L22.0904 18.6469L8.38141 23Z" fill="black"/>
<path d="M22.0905 18.6469L16.5029 13.839L22.0905 4.48303V18.6469Z" fill="#790021"/>
<path d="M16.5026 13.839L22.0902 4.48305L8.44611 0L16.5026 13.839Z" fill="#D15858"/>
<path d="M8.44633 0L16.5028 13.839L0 11.565L8.44633 0Z" fill="#A0201F"/>
<path d="M0 11.565L16.5028 13.839L8.38135 23L0 11.565Z" fill="#64010C"/>
<path d="M26.0905 3.5V5.5H40.9363L34.5443 11.5L36.6062 13.5H42.5858V17.5H26.0905V21.5H44.6477L46.7097 19.5V9.5H42.5858L46.7097 5.5V1.5H28.1524L26.0905 3.5Z" fill="#910828"/>
<path d="M96.3485 21.5V1.5H100.32L106.276 7.5L112.233 1.5H116.204V21.5H112.233V7.1L107.468 11.9H105.085L100.32 7.1V21.5H96.3485Z" fill="#910828"/>
<path fill-rule="evenodd" clip-rule="evenodd" d="M53.1245 15.5V21.5H49.0007V3.5L51.0626 1.5H67.558L69.6199 3.5V21.5H65.496V17.5H55.1864L53.1245 15.5ZM65.496 5.5H53.1245V13.5H65.496V5.5Z" fill="#910828"/>
<path fill-rule="evenodd" clip-rule="evenodd" d="M72.6746 21.5V3.5L74.7365 1.5H93.2938V19.5L91.2318 21.5H72.6746ZM89.1699 5.5H76.7984V17.5H89.1699V5.5Z" fill="#910828"/>
</svg>
