<svg width="8" height="6" viewBox="0 0 8 6" fill="none" xmlns="http://www.w3.org/2000/svg">
<path d="M3.68784 0.778021L0.127804 4.33812C0.045398 4.42046 9.77793e-09 4.53038 8.38031e-09 4.64758C6.98269e-09 4.76479 0.045398 4.8747 0.127804 4.95704L0.389915 5.21922C0.560711 5.38982 0.838302 5.38982 1.00884 5.21922L3.99834 2.22972L6.99116 5.22254C7.07357 5.30488 7.18342 5.35034 7.30056 5.35034C7.41783 5.35034 7.52768 5.30488 7.61015 5.22254L7.8722 4.96036C7.9546 4.87796 8 4.7681 8 4.6509C8 4.5337 7.9546 4.42378 7.8722 4.34144L4.30891 0.778021C4.22624 0.695485 4.11587 0.650153 3.99854 0.650413C3.88075 0.650153 3.77044 0.695485 3.68784 0.778021Z" fill="#121317"/>
</svg>
