<svg width="8" height="8" viewBox="0 0 8 8" fill="none" xmlns="http://www.w3.org/2000/svg">
<g clip-path="url(#clip0_2001_1705)">
<path d="M4.31216 6.22259L7.8722 2.66249C7.9546 2.58015 8 2.47023 8 2.35303C8 2.23582 7.9546 2.12591 7.8722 2.04357L7.61008 1.78139C7.43929 1.61079 7.1617 1.61079 6.99116 1.78139L4.00166 4.77089L1.00884 1.77807C0.926432 1.69573 0.816579 1.65027 0.699441 1.65027C0.582174 1.65027 0.472322 1.69573 0.389851 1.77807L0.127804 2.04025C0.0453982 2.12265 4.51387e-07 2.23251 4.46264e-07 2.34971C4.41141e-07 2.46691 0.0453982 2.57683 0.127804 2.65917L3.69109 6.22259C3.77376 6.30513 3.88413 6.35046 4.00146 6.3502C4.11925 6.35046 4.22956 6.30513 4.31216 6.22259Z" fill="#121317"/>
</g>
<defs>
<clipPath id="clip0_2001_1705">
<rect width="8" height="8" fill="white" transform="translate(8) rotate(90)"/>
</clipPath>
</defs>
</svg>
