<svg width="49" height="51" viewBox="0 0 49 51" fill="none" xmlns="http://www.w3.org/2000/svg">
<path d="M18.8323 50L36.1118 30.4831L48 40.726L18.8323 50Z" fill="black" fill-opacity="0.1"/>
<path d="M48 40.726L36.1118 30.4831L48 10.5508L48 40.726Z" fill="black" fill-opacity="0.1"/>
<path d="M36.1118 30.4831L48 10.5508L18.9706 1L36.1118 30.4831Z" fill="black" fill-opacity="0.1"/>
<path d="M18.9706 1L36.1118 30.4831L1 25.6384L18.9706 1Z" fill="black" fill-opacity="0.1"/>
<path d="M1 25.6384L36.1118 30.4831L18.8323 50L1 25.6384Z" fill="black" fill-opacity="0.1"/>
<path d="M36.1118 30.4831L18.8323 50M36.1118 30.4831L48 40.726M36.1118 30.4831L48 10.5508M36.1118 30.4831L18.9706 1M36.1118 30.4831L1 25.6384M18.8323 50L48 40.726M18.8323 50L1 25.6384M48 40.726L48 10.5508M48 10.5508L18.9706 1M18.9706 1L1 25.6384" stroke="white"/>
</svg>
