<svg width="53" height="79" viewBox="0 0 53 79" fill="none" xmlns="http://www.w3.org/2000/svg">
<path d="M14 10.5L25.5 17M14 10.5L28.998 1.30769C29.3078 1.1178 29.6962 1.11092 30.0126 1.28973L41 7.5M14 10.5L16 18M25.5 17L41 7.5M25.5 17V23M41 7.5L38.5 16M16 18L25.5 23M16 18L7.5 28M25.5 23L38.5 16M25.5 23V78M38.5 16L46 25.5M25.5 78L4.273 65.6587C4.09533 65.5554 3.95379 65.3999 3.86767 65.2133L1 59M25.5 78L48.2682 64.1411C48.42 64.0487 48.5444 63.9175 48.6287 63.761L52 57.5M1 59L25.0108 72.2305C25.3148 72.398 25.684 72.3959 25.986 72.2249L52 57.5M1 59L7.5 28M52 57.5L46 25.5M7.5 28L24.9909 37.7172C25.3056 37.892 25.6899 37.8842 25.9972 37.6968L46 25.5M30 49L44.5 40" stroke="white" stroke-linecap="round"/>
</svg>
