<svg width="69" height="74" viewBox="0 0 69 74" fill="none" xmlns="http://www.w3.org/2000/svg">
<path d="M16.5 19V12M16.5 19L18.0108 18.2446C18.3156 18.0922 18.6771 18.1055 18.9698 18.2799L42 32M16.5 19L6.5 25M16.5 12L48.5 30.5M16.5 12L36.0087 1.2702C36.3139 1.10236 36.6844 1.10538 36.9868 1.27817L68 19M48.5 30.5L68 19M48.5 30.5V53M68 19V40.9288C68 41.2828 67.8129 41.6104 67.508 41.7902L52 50.9359M48.5 53L42 50M48.5 53L52 50.9359M42 50V32M42 50V60.5M42 32L38 34.1667M6.5 25L30 38.5M6.5 25L2 37.5M30 38.5L25.5 51M30 38.5L38 34.1667M25.5 51L37.4886 44.2864C37.8044 44.1095 38 43.7758 38 43.4139V34.1667M25.5 51L2 37.5M25.5 51V57.5M2 37.5V44M2 53L24.5 66.5M2 53L1.18377 53.2721C0.77543 53.4082 0.5 53.7903 0.5 54.2208V56.9256C0.5 57.2813 0.688909 57.6102 0.996127 57.7894L24.5 71.5M2 53V49M24.5 66.5L25.5 65.5M24.5 66.5V71.5M25.5 65.5L27 66.5M25.5 65.5V62.5M27 66.5V69.4338C27 69.7851 26.8157 70.1106 26.5145 70.2913L24.5 71.5M27 66.5L29.1779 68M42 60.5L51.5145 54.7913C51.8157 54.6106 52 54.2851 52 53.9338V50.9359M42 60.5C34.5 54.5 29.5 70 34.5 72.5M42 60.5C45.2315 63.0852 39.8852 75.1926 34.5 72.5M42 60.5L36.2856 57.1666C36.1002 57.0584 35.8854 57.0101 35.6736 57.0456C32.8523 57.5191 28.3237 60.2724 29.1779 68M2 49L5.4855 51.0913C6.15203 51.4912 7 51.0111 7 50.2338V47.5662C7 47.2149 6.8157 46.8894 6.5145 46.7087L2 44M2 49V44M25.5 57.5L20.4741 54.7937C19.8079 54.435 19 54.9175 19 55.6742V58.4027C19 58.7706 19.202 59.1088 19.5259 59.2832L25.5 62.5M25.5 57.5V62.5M17 57.5L9.5 53M16.5 53L9.5 49M34.5 72.5L29.933 70.2165C29.6595 70.0798 29.4623 69.8256 29.4061 69.525C29.3074 68.9964 29.2319 68.4883 29.1779 68M36 68C37.5 70 40.7974 63.8996 38 63.5C37 63.3571 34.5 65.5 36 68Z" stroke="white"/>
</svg>
