<svg width="135" height="156" viewBox="0 0 135 156" fill="none" xmlns="http://www.w3.org/2000/svg">
<path d="M32.3329 125.5C30.1663 125.167 24.7329 124 20.3329 122C14.8329 119.5 15.3329 120 9.33293 120C3.33293 120 0.332935 119.5 1.83293 112.5C3.33293 105.5 5.83301 103 10.833 76.5004C15.833 50.0004 33.333 32.5004 38.333 32.0004M38.333 32.0004L39.833 28.0004M38.333 32.0004C39.3951 33.682 41.6416 36.2001 44.833 38.0723M39.833 28.0004C37.4997 23.1671 33.033 12.8004 33.833 10.0004M39.833 28.0004C41.9997 30.0003 46.433 33.8 46.833 33M33.833 10.0004C34.833 6.5004 36.333 5.0004 44.333 5.0004C52.333 5.0004 48.833 0.000395477 57.333 1.0004C65.833 2.0004 63.333 7 75.333 9C85.885 10.7587 84.8386 15.6102 79.333 17.7754M33.833 10.0004C36.6663 13.1669 42.833 20 44.833 22M44.833 22C47.333 24.5 55.333 25.5 61.333 21.5C62.8773 20.4704 64.1567 19.8715 65.333 19.5241M44.833 22C45.6663 25.3333 47.233 32.2 46.833 33M46.833 33C48.1663 35 52.833 38.1 60.833 34.5M60.833 34.5C68.833 30.9 71.1663 29.6667 71.333 29.5M60.833 34.5L65.333 19.5241M71.333 29.5C73.1663 26.0579 77.333 18.8939 79.333 17.7754M71.333 29.5C71.8426 30.2644 72.6249 31.7884 72.6079 33M79.333 17.7754C78.5775 18.0725 77.738 18.319 76.833 18.5C71.2634 19.6139 68.7269 18.5219 65.333 19.5241M44.833 38.0723C47.6512 39.7256 51.2062 40.8752 55.333 40.5C57.7921 40.2764 59.9513 39.903 61.833 39.441M44.833 38.0723L39.333 48M61.833 39.441C63.4997 45.294 66.733 57.9 66.333 61.5C65.833 66 78.833 72 75.333 58.5C72.533 47.7 67.833 40.4612 65.833 38.1918M61.833 39.441C63.3407 39.0709 64.6702 38.644 65.833 38.1918M65.833 38.1918C68.095 37.3124 69.7265 36.3375 70.8119 35.5M70.8119 35.5C71.5873 34.9017 72.0841 34.3734 72.333 34C72.5215 33.7173 72.6027 33.3735 72.6079 33M70.8119 35.5L79.333 45.5M72.6079 33C77.0163 34.5 87.233 40.7 92.833 53.5C98.433 66.3 101.166 80.8333 101.833 86.5M101.833 86.5L107.333 89.5078M101.833 86.5L94.3047 82.2653C94.0104 82.0998 93.6524 82.094 93.3529 82.2498L32.3329 114M133.833 104L71.833 136M133.833 104V110M133.833 104L117.833 95.25M71.833 155L64.7783 150.297C64.5001 150.111 64.333 149.799 64.333 149.465V143M71.833 155V143M71.833 155L82.333 149.665M71.833 136V143M71.833 136L57.333 127.924M32.3329 114V122M32.3329 114L46.697 122M40.833 139L32.8651 134.782C32.5377 134.608 32.3329 134.268 32.3329 133.898V122M40.833 139V128.168C40.833 127.413 41.6382 126.93 42.3043 127.286L47.3043 129.958C47.6298 130.132 47.833 130.471 47.833 130.84V133M40.833 139L47.833 133M57.333 148.5L48.332 143.289C48.0232 143.11 47.833 142.78 47.833 142.423V133M57.333 148.5V136.953C57.333 136.199 58.1352 135.716 58.8012 136.069L63.8012 138.718C64.1284 138.892 64.333 139.232 64.333 139.602V143M57.333 148.5L64.333 143M71.833 143L46.697 129.637M71.833 143L82.333 137.411M32.3329 122L46.697 129.637M133.833 110V122.886C133.833 123.263 133.622 123.607 133.286 123.778L123.833 128.581M133.833 110L123.833 115.323M57.333 127.924L117.833 95.25M57.333 127.924L46.697 122M117.833 95.25L107.333 89.5078M46.697 122L107.333 89.5078M46.697 122V129.637M82.333 137.411V149.665M82.333 137.411L87.8027 134.5M82.333 149.665L99.0754 141.159M99.0754 128.5V141.159M99.0754 128.5L87.8027 134.5M99.0754 128.5L107.833 123.839M99.0754 141.159L87.8027 134.5M99.0754 141.159L107.833 136.71M107.833 123.839V136.71M107.833 123.839L114.106 120.5M107.833 136.71L123.833 128.581M123.833 115.323V128.581M123.833 115.323L114.106 120.5M123.833 128.581L114.106 120.5" stroke="white" stroke-width="1.7"/>
</svg>
