<svg width="110" height="125" viewBox="0 0 110 125" fill="none" xmlns="http://www.w3.org/2000/svg">
<path d="M1.5 29L41.5 50M1.5 29L1.5 93M1.5 29L38.5 8M41.5 123L2.53616 101.57C1.89707 101.218 1.5 100.547 1.5 99.8175V93M41.5 123L76.5077 102.579C77.1222 102.22 77.5 101.563 77.5 100.851V97M41.5 123V114M41.5 50L77.5 30M41.5 50V114M77.5 30V35M77.5 30L38.5 8M77.5 35L108.5 18M77.5 35V93M108.5 18V77.8486C108.5 78.5614 108.121 79.2203 107.504 79.5782L77.5 97M108.5 18L76.4876 1.50876C75.8734 1.19236 75.1394 1.21537 74.5462 1.56963L52.4968 14.738C51.8804 15.1061 51.114 15.1156 50.4887 14.7629L38.5 8M77.5 97V93M1.5 93L41.5 114M41.5 114L77.5 93M60 77L66.5685 73.5429C67.9003 72.8419 69.5 73.8077 69.5 75.3127V85.8469C69.5 86.5606 69.1197 87.2202 68.5021 87.5777L60 92.5M60 77L51.5685 81.4376C50.9114 81.7835 50.5 82.4649 50.5 83.2075V94.5311C50.5 96.0718 52.1687 97.0339 53.5021 96.262L60 92.5M60 77V92.5M61 51L67.5685 47.5429C68.9003 46.8419 70.5 47.8077 70.5 49.3127V59.8469C70.5 60.5606 70.1197 61.2202 69.5021 61.5777L61 66.5M61 51L52.5685 55.4376C51.9114 55.7835 51.5 56.4649 51.5 57.2075V68.5311C51.5 70.0718 53.1687 71.0339 54.5021 70.262L61 66.5M61 51V66.5M93 63L99.5685 59.5429C100.9 58.8419 102.5 59.8077 102.5 61.3127V71.8469C102.5 72.5606 102.12 73.2202 101.502 73.5777L93 78.5M93 63L85.6484 66.4596C84.9474 66.7894 84.5 67.4945 84.5 68.2692V80.3237C84.5 81.9087 86.2558 82.8639 87.5865 82.0029L93 78.5M93 63V78.5M94 37L100.569 33.5429C101.9 32.8419 103.5 33.8077 103.5 35.3127V45.8469C103.5 46.5606 103.12 47.2202 102.502 47.5777L94 52.5M94 37L85.5685 41.4376C84.9114 41.7835 84.5 42.4649 84.5 43.2075V54.5311C84.5 56.0718 86.1687 57.0339 87.5021 56.262L94 52.5M94 37V52.5M21.5 53L30.3944 57.4472C31.072 57.786 31.5 58.4785 31.5 59.2361V69.6175C31.5 71.1387 29.8691 72.103 28.5362 71.3699L21.5 67.5M21.5 53L14.3944 49.4472C13.0646 48.7823 11.5 49.7493 11.5 51.2361V60.8175C11.5 61.5468 11.8971 62.2184 12.5362 62.5699L21.5 67.5M21.5 53V67.5M20.5 78L29.3944 82.4472C30.072 82.786 30.5 83.4785 30.5 84.2361V94.6175C30.5 96.1387 28.8691 97.103 27.5362 96.3699L20.5 92.5M20.5 78L13.3944 74.4472C12.0646 73.7823 10.5 74.7493 10.5 76.2361V85.8175C10.5 86.5468 10.8971 87.2184 11.5362 87.5699L20.5 92.5M20.5 78V92.5" stroke="white" stroke-width="2"/>
</svg>
