<svg width="72" height="67" viewBox="0 0 72 67" fill="none" xmlns="http://www.w3.org/2000/svg">
<path d="M1 34.5V54.9423C1 55.289 1.17955 55.6109 1.47451 55.7931L18 66M1 34.5L18 45.5M1 34.5L7.5 30.8889M18 66V45.5M18 66L35.0145 55.7913C35.3157 55.6106 35.5 55.2851 35.5 54.9338V53.5M18 45.5L24.5 41.6M19 24.5L35.5 35M19 24.5L12 28.3889M19 24.5V12M35.5 35L29 38.9M35.5 35V53.5M29 38.9V44.4116C29 44.7748 28.8031 45.1094 28.4856 45.2858L25.9856 46.6746C25.3191 47.0449 24.5 46.563 24.5 45.8005V41.6M29 38.9L24.5 41.6M29 38.9L12 28.3889M24.5 41.6L7.5 30.8889M7.5 30.8889L12 28.3889M35.5 53.5L38.5 55.5M38.5 55.5V23M38.5 55.5L41.5 53.5M38.5 23L19 12M38.5 23L46.5 18.4872M19 12L28 6.92308M58 12L38.9913 1.27716C38.6864 1.10513 38.3136 1.10513 38.0087 1.27716L32 4.66667M58 12L51 15.9487M58 12V29.5M46.5 18.4872V22.8005C46.5 23.563 47.3191 24.0449 47.9856 23.6746L50.4856 22.2858C50.8031 22.1094 51 21.7748 51 21.4116V15.9487M46.5 18.4872L51 15.9487M46.5 18.4872L28 6.92308M51 15.9487L32 4.66667M32 4.66667L28 6.92308M58 29.5L41.5 39.5M58 29.5L71 36.5M41.5 39.5L53.5 46.5M41.5 39.5V53.5M53.5 64L41.9453 56.2969C41.6671 56.1114 41.5 55.7992 41.5 55.4648V53.5M53.5 64L70.5145 53.7913C70.8157 53.6106 71 53.2851 71 52.9338V36.5M53.5 64V46.5M71 36.5L53.5 46.5M61 47.5L65 45" stroke="white"/>
</svg>
