<svg width="53" height="64" viewBox="0 0 53 64" fill="none" xmlns="http://www.w3.org/2000/svg">
<path d="M0.5 16V45.9412C0.5 46.2885 0.680155 46.6109 0.975902 46.7929L19 57.8846M0.5 16L25.9886 0.80487C26.3037 0.617011 26.6964 0.616784 27.0117 0.80428L45 11.5M0.5 16L19 26.6731M26.5 62.5L52.0241 46.7929C52.3198 46.6109 52.5 46.2885 52.5 45.9412V16M26.5 62.5V31M26.5 62.5L19 57.8846M52.5 16L26.5 31M52.5 16L45 11.5M26.5 31L19 26.6731M45 11.5L19 26.6731M19 26.6731V57.8846M40.1154 47.7116L47.6583 28.8543C47.8514 28.3714 47.6422 27.8211 47.177 27.5885L44.9304 26.4652C44.4226 26.2113 43.8055 26.4306 43.5718 26.9481L37.5491 40.284C37.2746 40.8919 36.4934 41.0657 35.987 40.6317L34.1575 39.0636C33.7801 38.7401 33.2224 38.7429 32.8482 39.0703L30.2789 41.3185C29.8531 41.691 29.8209 42.3423 30.2078 42.755L36.4206 49.382C36.755 49.7386 37.2981 49.8013 37.7049 49.5301L39.7416 48.1723C39.9099 48.0601 40.0402 47.8994 40.1154 47.7116Z" stroke="white"/>
</svg>
