<svg width="52" height="61" viewBox="0 0 52 61" fill="none" xmlns="http://www.w3.org/2000/svg">
<path d="M8 14.5L12.4292 9.62787C12.7585 9.2657 13.3015 9.19507 13.7124 9.46097L15.7916 10.8063M8 14.5L17 19.5M8 14.5L9.5 19M21.5 14.5L17 19.5M21.5 14.5L15.7916 10.8063M21.5 14.5L24.4634 16.1934C24.7923 16.3813 25.1991 16.3673 25.5142 16.1572L29.5 13.5M17 19.5L18 24.5M9.5 19L18 24.5M9.5 19L6.5 25.5M18 24.5L15 31M15 31L6.5 25.5M15 31L11 33M6.5 25.5L2 27M2 27L11 33M2 27L0.648534 33.3068C0.559556 33.7221 0.742534 34.1482 1.10489 34.3697L4.29249 36.3176M11 33L9.5 39.5M9.5 39.5L4.29249 36.3176M9.5 39.5L12.6851 39.8981C13.1587 39.9573 13.5245 40.343 13.5585 40.8192L14 47M4.29249 36.3176L4.5 41M4.5 41L14 47M4.5 41L1 46.5M14 47L10 52M10 52L1 46.5M10 52L13.5 57M1 46.5L4.38031 51.329C4.45925 51.4418 4.56063 51.5371 4.67809 51.6088L13.5 57M13.5 57L16.3125 54.5M25 60L24.6143 55.7574C24.5559 55.1152 23.8872 54.613 23.2474 54.5326C21.8606 54.3583 19.8968 53.7184 18.5755 53.2227C18.2209 53.0896 17.8212 53.159 17.5381 53.4106L16.3125 54.5M25 60L16.3125 54.5M25 60L30.498 57.7092C30.811 57.5787 31.0366 57.2986 31.0973 56.965L31.9351 52.357C31.977 52.1264 32.0987 51.9178 32.2788 51.7677L37.4976 47.4187C37.8028 47.1643 38.2296 47.1148 38.585 47.2925L40.2423 48.1212C40.6795 48.3398 41.2107 48.2102 41.4983 47.8149L44.7253 43.3777C44.8994 43.1383 44.9585 42.8341 44.8867 42.547L44.0676 39.2703C44.0234 39.0935 44.0283 38.9079 44.0819 38.7337L45.8953 32.8404C45.963 32.6202 46.1047 32.4302 46.2963 32.3024L50.0983 29.7678C50.3521 29.5986 50.5148 29.3228 50.5401 29.0188L51 23.5M51 23.5H47.8198C47.3431 23.5 46.9327 23.1635 46.8392 22.6961L46.5 21M51 23.5L46.5 21M46.5 21L46.0501 18.3007C46.0174 18.1047 46.0439 17.9034 46.1261 17.7225L48.2883 12.9657C48.4212 12.6733 48.4056 12.3347 48.2462 12.0558L46.5 9M46.5 9L41.9464 13.0983C41.6716 13.3455 41.283 13.4211 40.9356 13.2948L36.5967 11.717C36.2325 11.5845 35.9776 11.2536 35.9425 10.8677L35.5 6M46.5 9L38.436 4.25647C38.1619 4.09522 37.8274 4.07398 37.5351 4.19926L34.5 5.5M35.5 6L26.8621 1.20116C26.6302 1.07236 26.3567 1.04093 26.1017 1.11379L23 2M35.5 6L32 7.5M23 2L32 7.5M23 2L21 8M32 7.5L29.5 13.5M29.5 13.5L21 8M21 8L15.7916 10.8063M31.5 22.2619C32.1756 22.0457 32.8467 21.9512 33.5 22C46.9 23 34 49.5 24.5 44.5C22.6765 43.5403 21.702 41.9308 21.3706 40M31.5 22.2619C26.0391 24.0093 20.2911 33.7096 21.3706 40M31.5 22.2619C31.9138 27.0079 30.4672 37.2 21.3706 40" stroke="white"/>
</svg>
