<svg width="55" height="63" viewBox="0 0 55 63" fill="none" xmlns="http://www.w3.org/2000/svg">
<path d="M1 15L21 25.5M1 15L1 47M1 15L19.5 4.5M21 62L1.51808 51.2849C1.19853 51.1092 1 50.7734 1 50.4087V47M21 62L38.5039 51.7894C38.8111 51.6102 39 51.2813 39 50.9256V49M21 62V57.5M21 25.5L39 15.5M21 25.5V57.5M39 15.5V18M39 15.5L19.5 4.5M39 18L54.5 9.5M39 18V47M54.5 9.5V39.4243C54.5 39.7807 54.3103 40.1101 54.0021 40.2891L39 49M54.5 9.5L38.4938 1.25438C38.1867 1.09618 37.8197 1.10768 37.5231 1.28481L26.4984 7.869C26.1902 8.05306 25.807 8.05781 25.4944 7.88143L19.5 4.5M39 49V47M1 47L21 57.5M21 57.5L39 47M30.25 39L33.5343 37.2714C34.2002 36.921 35 37.4039 35 38.1564V43.4234C35 43.7803 34.8099 44.1101 34.501 44.2889L30.25 46.75M30.25 39L26.0343 41.2188C25.7057 41.3917 25.5 41.7325 25.5 42.1037V47.7656C25.5 48.5359 26.3344 49.0169 27.001 48.631L30.25 46.75M30.25 39V46.75M30.75 26L34.0343 24.2714C34.7002 23.921 35.5 24.4039 35.5 25.1564V30.4234C35.5 30.7803 35.3099 31.1101 35.001 31.2889L30.75 33.75M30.75 26L26.5343 28.2188C26.2057 28.3917 26 28.7325 26 29.1037V34.7656C26 35.5359 26.8344 36.0169 27.501 35.631L30.75 33.75M30.75 26V33.75M46.75 32L50.0343 30.2714C50.7002 29.921 51.5 30.4039 51.5 31.1564V36.4234C51.5 36.7803 51.3099 37.1101 51.001 37.2889L46.75 39.75M46.75 32L43.0742 33.7298C42.7237 33.8947 42.5 34.2472 42.5 34.6346V40.6619C42.5 41.4544 43.3779 41.932 44.0433 41.5014L46.75 39.75M46.75 32V39.75M47.25 19L50.5343 17.2714C51.2002 16.921 52 17.4039 52 18.1564V23.4234C52 23.7803 51.8099 24.1101 51.501 24.2889L47.25 26.75M47.25 19L43.0343 21.2188C42.7057 21.3917 42.5 21.7325 42.5 22.1037V27.7656C42.5 28.5359 43.3344 29.0169 44.001 28.631L47.25 26.75M47.25 19V26.75M11 27L15.4472 29.2236C15.786 29.393 16 29.7393 16 30.118V35.3087C16 36.0693 15.1845 36.5515 14.5181 36.1849L11 34.25M11 27L7.44722 25.2236C6.78231 24.8912 6 25.3747 6 26.118V30.9087C6 31.2734 6.19853 31.6092 6.51808 31.7849L11 34.25M11 27V34.25M10.5 39.5L14.9472 41.7236C15.286 41.893 15.5 42.2393 15.5 42.618V47.8087C15.5 48.5693 14.6845 49.0515 14.0181 48.6849L10.5 46.75M10.5 39.5L6.94722 37.7236C6.28231 37.3912 5.5 37.8747 5.5 38.618V43.4087C5.5 43.7734 5.69853 44.1092 6.01808 44.2849L10.5 46.75M10.5 39.5V46.75" stroke="white"/>
</svg>
