<svg width="31" height="18" viewBox="0 0 31 18" fill="none" xmlns="http://www.w3.org/2000/svg">
<path d="M7.61392 15.952C7.61392 16.5457 7.12693 17.027 6.5262 17.027C5.92547 17.027 5.43848 16.5457 5.43848 15.952C5.43848 15.3583 5.92547 14.877 6.5262 14.877C7.12693 14.877 7.61392 15.3583 7.61392 15.952Z" fill="#EA0D3D"/>
<path fill-rule="evenodd" clip-rule="evenodd" d="M3.13711 5.47979C2.42168 6.93101 2.17544 9.93161 2.17544 16.8834H0C0 9.93161 0.276064 6.37461 1.18144 4.53808C2.10317 2.66838 3.77285 0.973145 6.52632 0.973145C9.27978 0.973145 10.9495 2.66838 11.8712 4.53808C12.7766 6.37462 13.0526 9.93161 13.0526 16.8834H10.8772C10.8772 9.93161 10.6309 6.93101 9.91552 5.47979C9.21644 4.06173 8.16683 3.12318 6.52632 3.12318C4.8858 3.12318 3.83618 4.06174 3.13711 5.47979Z" fill="white"/>
<path fill-rule="evenodd" clip-rule="evenodd" d="M18.3377 11.0772C19.1765 11.4811 20.5035 11.8761 22.8421 11.8761V14.0162C20.1772 14.0162 18.4815 13.5381 17.3848 13.01C15.493 12.0991 13.7778 10.4489 13.7778 7.72757C13.7778 5.00626 15.493 3.35608 17.3848 2.44512C18.4815 1.91703 20.1953 1.43899 22.8421 1.43899V3.57907C20.5216 3.57907 19.1765 3.97402 18.3377 4.37795C16.9029 5.06886 15.9532 6.10621 15.9532 7.72757C15.9532 9.34892 16.9029 10.3863 18.3377 11.0772Z" fill="white"/>
<path d="M22.8421 14.7334V16.8834L13.7778 16.8834V14.7334H22.8421Z" fill="white"/>
<path d="M28.8246 10.0391C28.8246 10.0391 29.496 10.1381 29.9123 10.2264C30.3286 10.3146 31 10.5109 31 10.5109V16.8117H28.8246V10.0391Z" fill="white"/>
<path d="M23.5673 1.47482C23.5673 1.47482 24.2423 1.47823 24.6731 1.51066C25.0925 1.54222 25.7427 1.6417 25.7427 1.6417V16.8834H23.5673V1.47482Z" fill="white"/>
<path d="M28.8246 12.6557L28.8246 10.0391C28.4893 10.4059 28.0648 10.7115 27.5715 10.9684C27.2199 11.1516 26.8468 11.3026 26.4678 11.4254V13.6362C27.108 13.467 27.7586 13.2317 28.373 12.9117C28.525 12.8325 28.6758 12.7473 28.8246 12.6557Z" fill="white"/>
<path d="M25.7427 13.8019V11.6264C24.9551 11.8102 24.1842 11.8842 23.5673 11.8842V14.0167C24.1787 14.0167 24.9372 13.9583 25.7427 13.8019Z" fill="white"/>
</svg>
