<svg width="57" height="28" viewBox="0 0 57 28" fill="none" xmlns="http://www.w3.org/2000/svg">
<g style="mix-blend-mode:luminosity">
<path d="M2.21939 5.71662L5.81629 2.32708L9.41016 5.73605L5.79792 9.12554L2.21939 5.71662Z" fill="#666666"/>
<path d="M11.879 0.0321419C12.3211 0.957696 12.3211 0.957696 12.3211 0.957696C10.2488 1.89136 9.71691 5.79609 9.69771 7.2273C9.6741 15.9639 9.6741 15.9639 9.6741 15.9639C8.61615 15.976 8.61615 15.976 8.61615 15.976C8.63992 7.17972 8.63992 7.17972 8.63992 7.17972C8.62523 6.94113 8.76276 1.44008 11.879 0.0321419Z" fill="#666666"/>
<path d="M18.0459 10.0526L0.0459595 10.0039L2.4966e-05 27.0001L17.9999 27.0487L18.0459 10.0526Z" fill="#666666"/>
<path d="M9.16412 11.7583L16.0942 11.777L16.076 18.5159L9.16412 11.7583Z" fill="white"/>
</g>
<path d="M24.1298 24.0483V15.3211H29.3627V16.2586H25.1866V19.2074H28.9707V20.1449H25.1866V24.0483H24.1298ZM32.9625 24.2017C32.5477 24.2017 32.1713 24.1236 31.8332 23.9674C31.4952 23.8083 31.2267 23.5796 31.0278 23.2813C30.829 22.9802 30.7295 22.6165 30.7295 22.1904C30.7295 21.8154 30.8034 21.5114 30.9511 21.2785C31.0989 21.0427 31.2963 20.858 31.5435 20.7245C31.7906 20.591 32.0633 20.4915 32.3616 20.4262C32.6628 20.358 32.9653 20.304 33.2693 20.2642C33.667 20.2131 33.9895 20.1748 34.2366 20.1492C34.4866 20.1208 34.6685 20.0739 34.7821 20.0086C34.8986 19.9432 34.9568 19.8296 34.9568 19.6677V19.6336C34.9568 19.2131 34.8418 18.8864 34.6116 18.6535C34.3844 18.4205 34.0392 18.304 33.5761 18.304C33.096 18.304 32.7196 18.4091 32.4469 18.6194C32.1741 18.8296 31.9824 19.054 31.8716 19.2927L30.917 18.9517C31.0875 18.554 31.3148 18.2444 31.5989 18.0228C31.8858 17.7983 32.1983 17.6421 32.5364 17.554C32.8773 17.4631 33.2125 17.4177 33.542 17.4177C33.7523 17.4177 33.9937 17.4432 34.2665 17.4944C34.542 17.5427 34.8077 17.6435 35.0633 17.7969C35.3219 17.9503 35.5364 18.1819 35.7068 18.4915C35.8773 18.8012 35.9625 19.216 35.9625 19.7358V24.0483H34.9568V23.162H34.9057C34.8375 23.304 34.7239 23.456 34.5648 23.6179C34.4057 23.7799 34.194 23.9177 33.9298 24.0313C33.6656 24.1449 33.3432 24.2017 32.9625 24.2017ZM33.1159 23.2983C33.5136 23.2983 33.8489 23.2202 34.1216 23.064C34.3972 22.9077 34.6045 22.706 34.7437 22.4589C34.8858 22.2117 34.9568 21.9517 34.9568 21.679V20.7586C34.9142 20.8097 34.8205 20.8566 34.6756 20.8992C34.5335 20.939 34.3687 20.9745 34.1812 21.0057C33.9966 21.0341 33.8162 21.0597 33.6401 21.0824C33.4668 21.1023 33.3261 21.1194 33.2182 21.1336C32.9568 21.1677 32.7125 21.2231 32.4852 21.2998C32.2608 21.3736 32.079 21.4858 31.9398 21.6364C31.8034 21.7841 31.7352 21.9858 31.7352 22.2415C31.7352 22.591 31.8645 22.8552 32.123 23.0341C32.3844 23.2103 32.7153 23.2983 33.1159 23.2983ZM37.7981 24.0483V17.5029H38.7697V18.4915H38.8379C38.9572 18.1677 39.1731 17.9049 39.4856 17.7032C39.7981 17.5015 40.1504 17.4006 40.5424 17.4006C40.6163 17.4006 40.7086 17.402 40.8194 17.4049C40.9302 17.4077 41.014 17.412 41.0708 17.4177V18.4404C41.0367 18.4319 40.9586 18.4191 40.8364 18.402C40.7171 18.3821 40.5907 18.3722 40.4572 18.3722C40.139 18.3722 39.8549 18.439 39.6049 18.5725C39.3577 18.7032 39.1617 18.885 39.0168 19.1179C38.8748 19.3481 38.8038 19.6108 38.8038 19.9063V24.0483H37.7981ZM42.3993 24.0483V15.3211H43.405V18.5427H43.4902C43.5641 18.429 43.6663 18.2841 43.797 18.108C43.9305 17.929 44.1209 17.7699 44.368 17.6307C44.618 17.4887 44.9561 17.4177 45.3822 17.4177C45.9334 17.4177 46.4192 17.5554 46.8396 17.831C47.2601 18.1066 47.5882 18.4972 47.824 19.0029C48.0598 19.5086 48.1777 20.1052 48.1777 20.7927C48.1777 21.4858 48.0598 22.0867 47.824 22.5952C47.5882 23.1009 47.2615 23.4929 46.8439 23.7714C46.4263 24.0469 45.9447 24.1847 45.3993 24.1847C44.9788 24.1847 44.6422 24.1151 44.3893 23.9759C44.1365 23.8339 43.9419 23.6733 43.8055 23.4944C43.6692 23.3125 43.5641 23.162 43.4902 23.0427H43.3709V24.0483H42.3993ZM43.3879 20.7756C43.3879 21.2699 43.4604 21.706 43.6053 22.0839C43.7501 22.4589 43.9618 22.7529 44.2402 22.966C44.5186 23.1762 44.8595 23.2813 45.2629 23.2813C45.6834 23.2813 46.0342 23.1705 46.3155 22.9489C46.5996 22.7245 46.8126 22.4233 46.9547 22.0455C47.0996 21.6648 47.172 21.2415 47.172 20.7756C47.172 20.3154 47.101 19.9006 46.9589 19.5313C46.8197 19.1591 46.6081 18.8651 46.324 18.6492C46.0428 18.4304 45.6891 18.3211 45.2629 18.3211C44.8538 18.3211 44.5101 18.4248 44.2317 18.6321C43.9533 18.8367 43.743 19.1236 43.601 19.4929C43.4589 19.8594 43.3879 20.287 43.3879 20.7756ZM51.6422 24.2017C51.2274 24.2017 50.851 24.1236 50.5129 23.9674C50.1749 23.8083 49.9064 23.5796 49.7075 23.2813C49.5087 22.9802 49.4092 22.6165 49.4092 22.1904C49.4092 21.8154 49.4831 21.5114 49.6308 21.2785C49.7785 21.0427 49.976 20.858 50.2232 20.7245C50.4703 20.591 50.743 20.4915 51.0413 20.4262C51.3425 20.358 51.645 20.304 51.949 20.2642C52.3467 20.2131 52.6692 20.1748 52.9163 20.1492C53.1663 20.1208 53.3482 20.0739 53.4618 20.0086C53.5783 19.9432 53.6365 19.8296 53.6365 19.6677V19.6336C53.6365 19.2131 53.5214 18.8864 53.2913 18.6535C53.0641 18.4205 52.7189 18.304 52.2558 18.304C51.7757 18.304 51.3993 18.4091 51.1266 18.6194C50.8538 18.8296 50.6621 19.054 50.5513 19.2927L49.5967 18.9517C49.7672 18.554 49.9945 18.2444 50.2785 18.0228C50.5655 17.7983 50.878 17.6421 51.216 17.554C51.557 17.4631 51.8922 17.4177 52.2217 17.4177C52.432 17.4177 52.6734 17.4432 52.9462 17.4944C53.2217 17.5427 53.4874 17.6435 53.743 17.7969C54.0016 17.9503 54.216 18.1819 54.3865 18.4915C54.557 18.8012 54.6422 19.216 54.6422 19.7358V24.0483H53.6365V23.162H53.5854C53.5172 23.304 53.4035 23.456 53.2445 23.6179C53.0854 23.7799 52.8737 23.9177 52.6095 24.0313C52.3453 24.1449 52.0229 24.2017 51.6422 24.2017ZM51.7956 23.2983C52.1933 23.2983 52.5285 23.2202 52.8013 23.064C53.0768 22.9077 53.2842 22.706 53.4234 22.4589C53.5655 22.2117 53.6365 21.9517 53.6365 21.679V20.7586C53.5939 20.8097 53.5001 20.8566 53.3553 20.8992C53.2132 20.939 53.0484 20.9745 52.8609 21.0057C52.6763 21.0341 52.4959 21.0597 52.3197 21.0824C52.1464 21.1023 52.0058 21.1194 51.8979 21.1336C51.6365 21.1677 51.3922 21.2231 51.1649 21.2998C50.9405 21.3736 50.7587 21.4858 50.6195 21.6364C50.4831 21.7841 50.4149 21.9858 50.4149 22.2415C50.4149 22.591 50.5442 22.8552 50.8027 23.0341C51.0641 23.2103 51.395 23.2983 51.7956 23.2983Z" fill="white"/>
</svg>
