<svg width="13" height="13" viewBox="0 0 13 13" fill="none" xmlns="http://www.w3.org/2000/svg">
<path d="M0.750033 5.39539C2.18733 8.52581 4.74484 11.0147 7.9245 12.3639L8.43419 12.591C9.6003 13.1106 10.9711 12.7159 11.6824 11.6557L12.3484 10.663C12.565 10.3402 12.4991 9.90543 12.1965 9.66137L9.93765 7.83903C9.60586 7.57136 9.11798 7.63371 8.86416 7.9762L8.16536 8.91915C6.37225 8.03464 4.91647 6.57885 4.03196 4.78575L4.9749 4.08695C5.31739 3.83314 5.37974 3.34525 5.11207 3.01347L3.28967 0.754508C3.04566 0.452047 2.61103 0.386072 2.28826 0.602498L1.28863 1.27277C0.221868 1.98805 -0.170667 3.37019 0.360882 4.5394L0.749448 5.39411L0.750033 5.39539Z" fill="#121317"/>
</svg>
