<svg width="1516" height="331" viewBox="0 0 1516 331" fill="none" xmlns="http://www.w3.org/2000/svg">
<path d="M0 33.1V66.2H249.755L142.221 165.5L176.909 198.6H277.505V264.8H0V331H312.193L346.881 297.9V132.4H277.505L346.881 66.2V0H34.6881L0 33.1Z" fill="white"/>
<path d="M1181.97 331V0H1248.77L1348.98 99.3L1449.19 0H1516V331H1449.19V92.68L1369.03 172.12H1328.94L1248.77 92.68V331H1181.97Z" fill="white"/>
<path fill-rule="evenodd" clip-rule="evenodd" d="M454.8 231.7V331H385.424V33.1L420.112 0H697.617L732.305 33.1V331H662.929V264.8H489.488L454.8 231.7ZM662.929 66.2H454.8V198.6H662.929V66.2Z" fill="white"/>
<path fill-rule="evenodd" clip-rule="evenodd" d="M783.695 331V33.1L818.383 0H1130.58V297.9L1095.89 331H783.695ZM1061.2 66.2H853.071V264.8H1061.2V66.2Z" fill="white"/>
</svg>
